<?xml version="1.0" encoding="UTF-8"?>
<svg version="1.1" xmlns="http://www.w3.org/2000/svg" width="95" height="90">
<path d="M0 0 C0.62003906 0.41378906 1.24007812 0.82757813 1.87890625 1.25390625 C2.57113281 1.67800781 3.26335938 2.10210938 3.9765625 2.5390625 C11.4465698 7.55164684 16.01538773 14.49536922 17.87890625 23.25390625 C18.86890625 23.25390625 19.85890625 23.25390625 20.87890625 23.25390625 C20.87890625 27.87390625 20.87890625 32.49390625 20.87890625 37.25390625 C25.82890625 37.25390625 30.77890625 37.25390625 35.87890625 37.25390625 C35.87890625 43.85390625 35.87890625 50.45390625 35.87890625 57.25390625 C37.85890625 57.25390625 39.83890625 57.25390625 41.87890625 57.25390625 C44.15422391 60.66688273 44.13565304 61.9352153 44.14453125 65.9453125 C44.14839844 67.60916992 44.14839844 67.60916992 44.15234375 69.30664062 C44.14460938 70.46486328 44.136875 71.62308594 44.12890625 72.81640625 C44.14050781 74.55954102 44.14050781 74.55954102 44.15234375 76.33789062 C44.14976563 77.44583984 44.1471875 78.55378906 44.14453125 79.6953125 C44.14227539 80.71310791 44.14001953 81.73090332 44.13769531 82.77954102 C43.87890625 85.25390625 43.87890625 85.25390625 41.87890625 87.25390625 C39.4119873 87.50787354 39.4119873 87.50787354 36.26757812 87.51269531 C35.09296021 87.51899963 33.91834229 87.52530396 32.70812988 87.53179932 C31.43417358 87.52775085 30.16021729 87.52370239 28.84765625 87.51953125 C27.54566284 87.5214447 26.24366943 87.52335815 24.90222168 87.52532959 C22.14488997 87.52828016 19.38768776 87.52398549 16.63037109 87.51464844 C13.09263552 87.50325378 9.55520338 87.50981363 6.01747894 87.52179337 C2.64834691 87.53075019 -0.72070309 87.52448265 -4.08984375 87.51953125 C-5.36380005 87.52357971 -6.63775635 87.52762817 -7.95031738 87.53179932 C-9.1249353 87.525495 -10.29955322 87.51919067 -11.50976562 87.51269531 C-12.54742065 87.51110413 -13.58507568 87.50951294 -14.6541748 87.50787354 C-17.12109375 87.25390625 -17.12109375 87.25390625 -19.12109375 85.25390625 C-19.43994141 83.37451172 -19.43994141 83.37451172 -19.53515625 81.12109375 C-19.57382812 80.31542969 -19.6125 79.50976562 -19.65234375 78.6796875 C-19.69875 77.41705078 -19.69875 77.41705078 -19.74609375 76.12890625 C-19.78476562 75.27941406 -19.8234375 74.42992188 -19.86328125 73.5546875 C-19.95765869 71.45478941 -20.04046961 69.35437734 -20.12109375 67.25390625 C-20.81074219 67.10695313 -21.50039063 66.96 -22.2109375 66.80859375 C-32.31305078 64.39738976 -40.16260993 59.91914034 -46.12109375 51.25390625 C-51.48962496 42.08266544 -52.65240421 32.77390858 -50.5078125 22.2421875 C-47.49220112 12.92966074 -41.66319758 5.14543467 -33.17578125 0.19140625 C-23.59901534 -4.17822078 -9.46528865 -5.31612102 0 0 Z " fill="#FE9ECE" transform="translate(51.12109375,2.74609375)"/>
<path d="M0 0 C0 4.62 0 9.24 0 14 C4.95 14 9.9 14 15 14 C15 20.6 15 27.2 15 34 C16.98 34 18.96 34 21 34 C23.27531766 37.41297648 23.25674679 38.68130905 23.265625 42.69140625 C23.26949219 44.35526367 23.26949219 44.35526367 23.2734375 46.05273438 C23.26570313 47.21095703 23.25796875 48.36917969 23.25 49.5625 C23.26160156 51.30563477 23.26160156 51.30563477 23.2734375 53.08398438 C23.27085938 54.19193359 23.26828125 55.29988281 23.265625 56.44140625 C23.26336914 57.45920166 23.26111328 58.47699707 23.25878906 59.52563477 C23 62 23 62 21 64 C18.53308105 64.25396729 18.53308105 64.25396729 15.38867188 64.25878906 C14.21405396 64.26509338 13.03943604 64.27139771 11.82922363 64.27789307 C10.55526733 64.2738446 9.28131104 64.26979614 7.96875 64.265625 C6.66675659 64.26753845 5.36476318 64.2694519 4.02331543 64.27142334 C1.26598372 64.27437391 -1.49121849 64.27007924 -4.24853516 64.26074219 C-7.78627073 64.24934753 -11.32370287 64.25590738 -14.86142731 64.26788712 C-18.23055934 64.27684394 -21.59960934 64.2705764 -24.96875 64.265625 C-26.2427063 64.26967346 -27.5166626 64.27372192 -28.82922363 64.27789307 C-30.00384155 64.27158875 -31.17845947 64.26528442 -32.38867188 64.25878906 C-33.94515442 64.25640228 -33.94515442 64.25640228 -35.53308105 64.25396729 C-38 64 -38 64 -40 62 C-40.17419323 59.08890642 -40.23171078 56.28360393 -40.1875 53.375 C-40.18685547 52.59253906 -40.18621094 51.81007812 -40.18554688 51.00390625 C-40.08164944 37.08164944 -40.08164944 37.08164944 -38 35 C-35.67182036 34.63239269 -33.3381615 34.29758419 -31 34 C-31 29.71 -31 25.42 -31 21 C-26.05 21 -21.1 21 -16 21 C-16 14.4 -16 7.8 -16 1 C-3.375 0 -3.375 0 0 0 Z " fill="#FF5D85" transform="translate(72,26)"/>
<path d="M0 0 C0.80767822 0.00620361 1.61535645 0.01240723 2.44750977 0.01879883 C3.36874634 0.03076294 3.36874634 0.03076294 4.30859375 0.04296875 C8.27412022 29.53021688 8.27412022 29.53021688 1.953125 39.05615234 C-4.04845976 46.84428673 -11.8566917 53.1834288 -19.69140625 59.04296875 C-23.18780664 57.4372145 -24.50554485 56.22776392 -26.31640625 52.79296875 C-26.72117187 52.0453125 -27.1259375 51.29765625 -27.54296875 50.52734375 C-31.71022219 41.51246895 -32.24698208 31.79770241 -29.19140625 22.29296875 C-24.85687826 11.94504628 -17.83352732 5.23412923 -7.75390625 0.73046875 C-4.98895128 0.10976457 -2.80873492 -0.02801096 0 0 Z " fill="#FEE365" transform="translate(30.69140625,-0.04296875)"/>
<path d="M0 0 C0 4.62 0 9.24 0 14 C4.95 14 9.9 14 15 14 C15.02683436 17.31255326 15.0467578 20.62489183 15.0625 23.9375 C15.07087891 24.88302734 15.07925781 25.82855469 15.08789062 26.80273438 C15.09111328 27.70185547 15.09433594 28.60097656 15.09765625 29.52734375 C15.10289307 30.35999756 15.10812988 31.19265137 15.11352539 32.05053711 C15 34 15 34 14 35 C11.95772125 35.10050211 9.91193667 35.13081762 7.8671875 35.1328125 C5.95413818 35.13571289 5.95413818 35.13571289 4.00244141 35.13867188 C2.62662617 35.13456876 1.25081225 35.13000398 -0.125 35.125 C-1.15043915 35.12367065 -1.15043915 35.12367065 -2.19659424 35.12231445 C-11.83894531 35.10751291 -21.39151999 34.85408711 -31 34 C-31 29.71 -31 25.42 -31 21 C-26.05 21 -21.1 21 -16 21 C-16 14.4 -16 7.8 -16 1 C-3.375 0 -3.375 0 0 0 Z " fill="#FFE361" transform="translate(72,26)"/>
<path d="M0 0 C4.95 0 9.9 0 15 0 C15 2.31 15 4.62 15 7 C19.95 7 24.9 7 30 7 C30 4.69 30 2.38 30 0 C35.28 0 40.56 0 46 0 C46.09765625 10.05859375 46.09765625 10.05859375 46 13 C44.17660777 14.82339223 41.31596217 14.13042345 38.8671875 14.1328125 C36.95413818 14.13571289 36.95413818 14.13571289 35.00244141 14.13867188 C33.62662617 14.13456876 32.25081225 14.13000398 30.875 14.125 C29.84956085 14.12367065 29.84956085 14.12367065 28.80340576 14.12231445 C19.16105469 14.10751291 9.60848001 13.85408711 0 13 C0 8.71 0 4.42 0 0 Z " fill="#FFB70D" transform="translate(41,47)"/>
<path d="M0 0 C0 11.22 0 22.44 0 34 C-7.86243631 27.26076887 -7.86243631 27.26076887 -11.078125 23.984375 C-11.76390625 23.29085938 -12.4496875 22.59734375 -13.15625 21.8828125 C-13.8471875 21.17898437 -14.538125 20.47515625 -15.25 19.75 C-16.64867742 18.32579927 -18.04962519 16.90382367 -19.453125 15.484375 C-20.06317383 14.86272461 -20.67322266 14.24107422 -21.30175781 13.60058594 C-23.11368729 11.80358687 -23.11368729 11.80358687 -26 10 C-17.11495017 2.49295558 -12.08827005 0 0 0 Z " fill="#B6E4A8" transform="translate(35,0)"/>
<path d="M0 0 C1.175625 0.0825 2.35125 0.165 3.5625 0.25 C5.83781766 3.66297648 5.81924679 4.93130905 5.828125 8.94140625 C5.83070312 10.05064453 5.83328125 11.15988281 5.8359375 12.30273438 C5.82820313 13.46095703 5.82046875 14.61917969 5.8125 15.8125 C5.82023437 16.97458984 5.82796875 18.13667969 5.8359375 19.33398438 C5.83335938 20.44193359 5.83078125 21.54988281 5.828125 22.69140625 C5.82586914 23.70920166 5.82361328 24.72699707 5.82128906 25.77563477 C5.5625 28.25 5.5625 28.25 3.5625 30.25 C0.87410615 30.51991906 -1.72891936 30.33737357 -4.4375 30.25 C-4.28047607 29.67942871 -4.12345215 29.10885742 -3.96166992 28.52099609 C-3.07584556 24.68311149 -2.97427999 20.79840459 -2.75 16.875 C-2.69005859 16.03710938 -2.63011719 15.19921875 -2.56835938 14.3359375 C-2.29022717 9.48957907 -2.49793336 5.81281194 -4.4375 1.25 C-3.4375 0.25 -3.4375 0.25 0 0 Z " fill="#FF4271" transform="translate(89.4375,59.75)"/>
<path d="M0 0 C9.67875643 -0.61452422 16.56323531 2.24197342 24.14453125 8.234375 C29.36918903 13.20604935 32.51000368 18.99701728 34 26 C31.36 26 28.72 26 26 26 C25.47212891 24.82244141 25.47212891 24.82244141 24.93359375 23.62109375 C20.12531459 13.389377 15.571009 7.7458162 5.234375 3.04296875 C3 2 3 2 0 0 Z " fill="#FE8BCB" transform="translate(35,0)"/>
<path d="M0 0 C8 0 8 0 10.5 1.5625 C12.55402253 4.90028661 12.41314312 7.14399755 12 11 C10.98263229 13.76142665 10.63829259 14.68085371 8 16 C5.36 16 2.72 16 0 16 C0 10.72 0 5.44 0 0 Z " fill="#FFEDF2" transform="translate(39,67)"/>
<path d="M0 0 C6.93359375 -0.09765625 6.93359375 -0.09765625 9 0 C10.93270447 1.93270447 10.65374251 5.40306881 11 8 C11.2475 8.9075 11.495 9.815 11.75 10.75 C12 13 12 13 10.80859375 14.62890625 C8.48806602 16.38809682 7.18861003 16.31254826 4.3125 16.1875 C2.889375 16.125625 1.46625 16.06375 0 16 C0 10.72 0 5.44 0 0 Z " fill="#FFF3F6" transform="translate(65,67)"/>
<path d="M0 0 C5.28 0 10.56 0 16 0 C16 2.31 16 4.62 16 7 C10.72 7 5.44 7 0 7 C0 4.69 0 2.38 0 0 Z " fill="#FFB905" transform="translate(71,47)"/>
<path d="M0 0 C5.28 0 10.56 0 16 0 C16 1.98 16 3.96 16 6 C15 7 15 7 11.62109375 7.09765625 C10.22652923 7.09098369 8.83198257 7.07902532 7.4375 7.0625 C6.72658203 7.05798828 6.01566406 7.05347656 5.28320312 7.04882812 C3.52209987 7.03700864 1.76103964 7.01907263 0 7 C0 4.69 0 2.38 0 0 Z " fill="#FFDD63" transform="translate(71,54)"/>
<path d="M0 0 C4.95 0 9.9 0 15 0 C15 2.31 15 4.62 15 7 C10.05 7 5.1 7 0 7 C0 4.69 0 2.38 0 0 Z " fill="#FFB206" transform="translate(56,54)"/>
<path d="M0 0 C4.95 0 9.9 0 15 0 C15 2.31 15 4.62 15 7 C10.05 7 5.1 7 0 7 C0 4.69 0 2.38 0 0 Z " fill="#FFE160" transform="translate(56,47)"/>
<path d="M0 0 C4.95 0 9.9 0 15 0 C15 2.31 15 4.62 15 7 C10.05 7 5.1 7 0 7 C0 4.69 0 2.38 0 0 Z " fill="#FFB605" transform="translate(56,40)"/>
<path d="M0 0 C0 2.31 0 4.62 0 7 C-5.28 7 -10.56 7 -16 7 C-16 5.02 -16 3.04 -16 1 C-13.89594609 0.83191581 -11.79175242 0.66558052 -9.6875 0.5 C-8.51574219 0.4071875 -7.34398438 0.314375 -6.13671875 0.21875 C-4.094806 0.07635011 -2.0468721 0 0 0 Z " fill="#FFB700" transform="translate(72,26)"/>
<path d="M0 0 C4.95 0 9.9 0 15 0 C15 1.98 15 3.96 15 6 C10.05 6 5.1 6 0 6 C0 4.02 0 2.04 0 0 Z " fill="#FFE363" transform="translate(41,54)"/>
<path d="M0 0 C2.64 0 5.28 0 8 0 C8 0.66 8 1.32 8 2 C6.35 2 4.7 2 3 2 C3 3.65 3 5.3 3 7 C4.65 7 6.3 7 8 7 C7.67 7.99 7.34 8.98 7 10 C5.68 10 4.36 10 3 10 C3 11.32 3 12.64 3 14 C4.65 14 6.3 14 8 14 C8 14.66 8 15.32 8 16 C5.36 16 2.72 16 0 16 C0 10.72 0 5.44 0 0 Z " fill="#FFF3F6" transform="translate(54,67)"/>
<path d="M0 0 C3.3 0 6.6 0 10 0 C10 0.66 10 1.32 10 2 C8.68 2 7.36 2 6 2 C6 6.62 6 11.24 6 16 C5.01 16 4.02 16 3 16 C3 11.38 3 6.76 3 2 C2.01 2 1.02 2 0 2 C0 1.34 0 0.68 0 0 Z " fill="#FFF2F5" transform="translate(78,67)"/>
<path d="M0 0 C4.875 0.875 4.875 0.875 6 2 C6.23529412 7.52941176 6.23529412 7.52941176 5 10 C3.35 10 1.7 10 0 10 C0 6.7 0 3.4 0 0 Z " fill="#FF5882" transform="translate(42,70)"/>
<path d="M0 0 C1.65 0 3.3 0 5 0 C5.5625 1.9375 5.5625 1.9375 6 4 C5 5 5 5 2.4375 5.0625 C1.2309375 5.0315625 1.2309375 5.0315625 0 5 C0 3.35 0 1.7 0 0 Z " fill="#FF6B90" transform="translate(68,76)"/>
<path d="M0 0 C2.475 0.495 2.475 0.495 5 1 C4.67 1.99 4.34 2.98 4 4 C2.68 4 1.36 4 0 4 C0 2.68 0 1.36 0 0 Z " fill="#FF7094" transform="translate(68,69)"/>
</svg>
